<mxfile host="app.diagrams.net" agent="Mozilla/5.0 (Windows NT 10.0; Win64; x64) AppleWebKit/537.36 (KHTML, like Gecko) Chrome/131.0.0.0 Safari/537.36" version="25.0.1">
  <diagram id="C5RBs43oDa-KdzZeNtuy" name="Page-1">
    <mxGraphModel dx="2208" dy="804" grid="1" gridSize="10" guides="1" tooltips="1" connect="1" arrows="1" fold="1" page="1" pageScale="1" pageWidth="827" pageHeight="1169" math="0" shadow="0">
      <root>
        <mxCell id="WIyWlLk6GJQsqaUBKTNV-0" />
        <mxCell id="WIyWlLk6GJQsqaUBKTNV-1" parent="WIyWlLk6GJQsqaUBKTNV-0" />
        <mxCell id="EEwjy92J7T-Fo-g2I9Rr-2" value="User" style="swimlane;fontStyle=1;align=center;verticalAlign=top;childLayout=stackLayout;horizontal=1;startSize=26;horizontalStack=0;resizeParent=1;resizeParentMax=0;resizeLast=0;collapsible=1;marginBottom=0;whiteSpace=wrap;html=1;fillColor=#CCE5FF;strokeColor=#000066;swimlaneFillColor=#F2F9FF;rounded=1;fontColor=#ffffff;arcSize=22;" parent="WIyWlLk6GJQsqaUBKTNV-1" vertex="1">
          <mxGeometry x="-820" y="380" width="200" height="164" as="geometry" />
        </mxCell>
        <mxCell id="EEwjy92J7T-Fo-g2I9Rr-4" value="- name: String" style="text;strokeColor=none;fillColor=none;align=left;verticalAlign=top;spacingLeft=4;spacingRight=4;overflow=hidden;rotatable=0;points=[[0,0.5],[1,0.5]];portConstraint=eastwest;whiteSpace=wrap;html=1;" parent="EEwjy92J7T-Fo-g2I9Rr-2" vertex="1">
          <mxGeometry y="26" width="200" height="26" as="geometry" />
        </mxCell>
        <mxCell id="EEwjy92J7T-Fo-g2I9Rr-6" value="- Posts: ArrayList&amp;lt;Post&amp;gt;" style="text;strokeColor=none;fillColor=none;align=left;verticalAlign=top;spacingLeft=4;spacingRight=4;overflow=hidden;rotatable=0;points=[[0,0.5],[1,0.5]];portConstraint=eastwest;whiteSpace=wrap;html=1;" parent="EEwjy92J7T-Fo-g2I9Rr-2" vertex="1">
          <mxGeometry y="52" width="200" height="26" as="geometry" />
        </mxCell>
        <mxCell id="EEwjy92J7T-Fo-g2I9Rr-7" value="-&amp;nbsp;friends: ArrayList&amp;lt;User&amp;gt;" style="text;strokeColor=none;fillColor=none;align=left;verticalAlign=top;spacingLeft=4;spacingRight=4;overflow=hidden;rotatable=0;points=[[0,0.5],[1,0.5]];portConstraint=eastwest;whiteSpace=wrap;html=1;" parent="EEwjy92J7T-Fo-g2I9Rr-2" vertex="1">
          <mxGeometry y="78" width="200" height="26" as="geometry" />
        </mxCell>
        <mxCell id="EEwjy92J7T-Fo-g2I9Rr-8" value="" style="line;strokeWidth=1;fillColor=none;align=left;verticalAlign=middle;spacingTop=-1;spacingLeft=3;spacingRight=3;rotatable=0;labelPosition=right;points=[];portConstraint=eastwest;strokeColor=inherit;" parent="EEwjy92J7T-Fo-g2I9Rr-2" vertex="1">
          <mxGeometry y="104" width="200" height="8" as="geometry" />
        </mxCell>
        <mxCell id="EEwjy92J7T-Fo-g2I9Rr-10" value="+ addFriend(friend: User): void" style="text;strokeColor=none;fillColor=none;align=left;verticalAlign=top;spacingLeft=4;spacingRight=4;overflow=hidden;rotatable=0;points=[[0,0.5],[1,0.5]];portConstraint=eastwest;whiteSpace=wrap;html=1;" parent="EEwjy92J7T-Fo-g2I9Rr-2" vertex="1">
          <mxGeometry y="112" width="200" height="26" as="geometry" />
        </mxCell>
        <mxCell id="EEwjy92J7T-Fo-g2I9Rr-11" value="&lt;span class=&quot;hljs-operator&quot;&gt;+&lt;/span&gt; getName(): String&amp;nbsp;" style="text;strokeColor=none;fillColor=none;align=left;verticalAlign=top;spacingLeft=4;spacingRight=4;overflow=hidden;rotatable=0;points=[[0,0.5],[1,0.5]];portConstraint=eastwest;whiteSpace=wrap;html=1;" parent="EEwjy92J7T-Fo-g2I9Rr-2" vertex="1">
          <mxGeometry y="138" width="200" height="26" as="geometry" />
        </mxCell>
        <mxCell id="EEwjy92J7T-Fo-g2I9Rr-12" value="&lt;font color=&quot;#ffffff&quot;&gt;Login&lt;/font&gt;" style="swimlane;fontStyle=1;align=center;verticalAlign=top;childLayout=stackLayout;horizontal=1;startSize=26;horizontalStack=0;resizeParent=1;resizeParentMax=0;resizeLast=0;collapsible=1;marginBottom=0;whiteSpace=wrap;html=1;fillColor=#CCE5FF;strokeColor=#000066;swimlaneFillColor=#F2F9FF;rounded=1;arcSize=22;fontFamily=Helvetica;fontSize=12;fontColor=#ffffff;" parent="WIyWlLk6GJQsqaUBKTNV-1" vertex="1">
          <mxGeometry x="-770" y="560" width="240" height="182" as="geometry" />
        </mxCell>
        <mxCell id="EEwjy92J7T-Fo-g2I9Rr-3" value="- Email: String" style="text;strokeColor=none;fillColor=none;align=left;verticalAlign=top;spacingLeft=4;spacingRight=4;overflow=hidden;rotatable=0;points=[[0,0.5],[1,0.5]];portConstraint=eastwest;whiteSpace=wrap;html=1;" parent="EEwjy92J7T-Fo-g2I9Rr-12" vertex="1">
          <mxGeometry y="26" width="240" height="26" as="geometry" />
        </mxCell>
        <mxCell id="EEwjy92J7T-Fo-g2I9Rr-5" value="- password: String" style="text;strokeColor=none;fillColor=none;align=left;verticalAlign=top;spacingLeft=4;spacingRight=4;overflow=hidden;rotatable=0;points=[[0,0.5],[1,0.5]];portConstraint=eastwest;whiteSpace=wrap;html=1;" parent="EEwjy92J7T-Fo-g2I9Rr-12" vertex="1">
          <mxGeometry y="52" width="240" height="26" as="geometry" />
        </mxCell>
        <mxCell id="8RoMcGWY3sbtKZLGOFck-24" value="" style="line;strokeWidth=1;fillColor=none;align=left;verticalAlign=middle;spacingTop=-1;spacingLeft=3;spacingRight=3;rotatable=0;labelPosition=right;points=[];portConstraint=eastwest;strokeColor=inherit;" vertex="1" parent="EEwjy92J7T-Fo-g2I9Rr-12">
          <mxGeometry y="78" width="240" height="8" as="geometry" />
        </mxCell>
        <mxCell id="EEwjy92J7T-Fo-g2I9Rr-13" value="&lt;font color=&quot;#000000&quot;&gt;&lt;span style=&quot;font-weight: 400;&quot;&gt;+ setEmail(Email: String): void&lt;/span&gt;&lt;/font&gt;" style="text;strokeColor=none;fillColor=none;align=left;verticalAlign=top;spacingLeft=4;spacingRight=4;overflow=hidden;rotatable=0;points=[[0,0.5],[1,0.5]];portConstraint=eastwest;whiteSpace=wrap;html=1;fontFamily=Helvetica;fontSize=12;fontColor=#ffffff;fontStyle=1;" parent="EEwjy92J7T-Fo-g2I9Rr-12" vertex="1">
          <mxGeometry y="86" width="240" height="24" as="geometry" />
        </mxCell>
        <mxCell id="8RoMcGWY3sbtKZLGOFck-25" value="&lt;font color=&quot;#000000&quot;&gt;&lt;span style=&quot;font-weight: 400;&quot;&gt;+ setPassword(password: String): void&lt;/span&gt;&lt;/font&gt;" style="text;strokeColor=none;fillColor=none;align=left;verticalAlign=top;spacingLeft=4;spacingRight=4;overflow=hidden;rotatable=0;points=[[0,0.5],[1,0.5]];portConstraint=eastwest;whiteSpace=wrap;html=1;fontFamily=Helvetica;fontSize=12;fontColor=#ffffff;fontStyle=1;" vertex="1" parent="EEwjy92J7T-Fo-g2I9Rr-12">
          <mxGeometry y="110" width="240" height="24" as="geometry" />
        </mxCell>
        <mxCell id="8RoMcGWY3sbtKZLGOFck-30" value="&lt;font color=&quot;#000000&quot;&gt;&lt;span style=&quot;font-weight: 400;&quot;&gt;+ getEmail():String&lt;/span&gt;&lt;/font&gt;" style="text;strokeColor=none;fillColor=none;align=left;verticalAlign=top;spacingLeft=4;spacingRight=4;overflow=hidden;rotatable=0;points=[[0,0.5],[1,0.5]];portConstraint=eastwest;whiteSpace=wrap;html=1;fontFamily=Helvetica;fontSize=12;fontColor=#ffffff;fontStyle=1;" vertex="1" parent="EEwjy92J7T-Fo-g2I9Rr-12">
          <mxGeometry y="134" width="240" height="24" as="geometry" />
        </mxCell>
        <mxCell id="8RoMcGWY3sbtKZLGOFck-26" value="&lt;font color=&quot;#000000&quot;&gt;&lt;span style=&quot;font-weight: 400;&quot;&gt;+ getPassword():String&lt;/span&gt;&lt;/font&gt;" style="text;strokeColor=none;fillColor=none;align=left;verticalAlign=top;spacingLeft=4;spacingRight=4;overflow=hidden;rotatable=0;points=[[0,0.5],[1,0.5]];portConstraint=eastwest;whiteSpace=wrap;html=1;fontFamily=Helvetica;fontSize=12;fontColor=#ffffff;fontStyle=1;" vertex="1" parent="EEwjy92J7T-Fo-g2I9Rr-12">
          <mxGeometry y="158" width="240" height="24" as="geometry" />
        </mxCell>
        <mxCell id="EEwjy92J7T-Fo-g2I9Rr-14" value="Post" style="swimlane;fontStyle=1;align=center;verticalAlign=top;childLayout=stackLayout;horizontal=1;startSize=26;horizontalStack=0;resizeParent=1;resizeParentMax=0;resizeLast=0;collapsible=1;marginBottom=0;whiteSpace=wrap;html=1;fillColor=#CCE5FF;strokeColor=#000066;swimlaneFillColor=#F2F9FF;rounded=1;fontColor=#ffffff;arcSize=22;fontFamily=Helvetica;fontSize=12;" parent="WIyWlLk6GJQsqaUBKTNV-1" vertex="1">
          <mxGeometry x="-327" y="370" width="290" height="346" as="geometry" />
        </mxCell>
        <mxCell id="EEwjy92J7T-Fo-g2I9Rr-15" value="&lt;span style=&quot;font-weight: normal;&quot;&gt;- &lt;/span&gt;&lt;span style=&quot;font-weight: 400;&quot;&gt;textContent&lt;/span&gt;&lt;span style=&quot;font-weight: normal;&quot;&gt;: String&lt;/span&gt;" style="text;strokeColor=none;fillColor=none;align=left;verticalAlign=top;spacingLeft=4;spacingRight=4;overflow=hidden;rotatable=0;points=[[0,0.5],[1,0.5]];portConstraint=eastwest;whiteSpace=wrap;html=1;fontFamily=Helvetica;fontSize=12;fontColor=#000000;fontStyle=1;" parent="EEwjy92J7T-Fo-g2I9Rr-14" vertex="1">
          <mxGeometry y="26" width="290" height="26" as="geometry" />
        </mxCell>
        <mxCell id="EEwjy92J7T-Fo-g2I9Rr-16" value="&lt;span style=&quot;font-weight: normal;&quot;&gt;- &lt;/span&gt;&lt;span style=&quot;font-weight: 400;&quot;&gt;PrivacySetting&lt;/span&gt;&lt;span style=&quot;font-weight: normal;&quot;&gt;:&amp;nbsp;&lt;/span&gt;&lt;span style=&quot;font-weight: 400;&quot;&gt;PostPrivacy&lt;/span&gt;" style="text;strokeColor=none;fillColor=none;align=left;verticalAlign=top;spacingLeft=4;spacingRight=4;overflow=hidden;rotatable=0;points=[[0,0.5],[1,0.5]];portConstraint=eastwest;whiteSpace=wrap;html=1;fontFamily=Helvetica;fontSize=12;fontColor=#000000;fontStyle=1;" parent="EEwjy92J7T-Fo-g2I9Rr-14" vertex="1">
          <mxGeometry y="52" width="290" height="26" as="geometry" />
        </mxCell>
        <mxCell id="EEwjy92J7T-Fo-g2I9Rr-18" value="- likes: int" style="text;strokeColor=none;fillColor=none;align=left;verticalAlign=top;spacingLeft=4;spacingRight=4;overflow=hidden;rotatable=0;points=[[0,0.5],[1,0.5]];portConstraint=eastwest;whiteSpace=wrap;html=1;fontFamily=Helvetica;fontSize=12;fontColor=#000000;fontStyle=0;" parent="EEwjy92J7T-Fo-g2I9Rr-14" vertex="1">
          <mxGeometry y="78" width="290" height="26" as="geometry" />
        </mxCell>
        <mxCell id="EEwjy92J7T-Fo-g2I9Rr-19" value="- shares: int" style="text;strokeColor=none;fillColor=none;align=left;verticalAlign=top;spacingLeft=4;spacingRight=4;overflow=hidden;rotatable=0;points=[[0,0.5],[1,0.5]];portConstraint=eastwest;whiteSpace=wrap;html=1;fontFamily=Helvetica;fontSize=12;fontColor=#000000;fontStyle=0;" parent="EEwjy92J7T-Fo-g2I9Rr-14" vertex="1">
          <mxGeometry y="104" width="290" height="26" as="geometry" />
        </mxCell>
        <mxCell id="EEwjy92J7T-Fo-g2I9Rr-17" value="- comments: ArrayList&lt;span class=&quot;hljs-operator&quot;&gt;&amp;lt;&lt;/span&gt;Comment&lt;span class=&quot;hljs-operator&quot;&gt;&amp;gt;&lt;/span&gt;" style="text;strokeColor=none;fillColor=none;align=left;verticalAlign=top;spacingLeft=4;spacingRight=4;overflow=hidden;rotatable=0;points=[[0,0.5],[1,0.5]];portConstraint=eastwest;whiteSpace=wrap;html=1;fontFamily=Helvetica;fontSize=12;fontColor=#000000;fontStyle=0;" parent="EEwjy92J7T-Fo-g2I9Rr-14" vertex="1">
          <mxGeometry y="130" width="290" height="26" as="geometry" />
        </mxCell>
        <mxCell id="EEwjy92J7T-Fo-g2I9Rr-20" value="" style="line;strokeWidth=1;fillColor=#CCE5FF;align=center;verticalAlign=top;spacingTop=-1;spacingLeft=3;spacingRight=3;rotatable=0;labelPosition=right;points=[];portConstraint=eastwest;strokeColor=#000066;rounded=1;arcSize=22;swimlaneFillColor=#F2F9FF;fontFamily=Helvetica;fontSize=12;fontColor=#ffffff;fontStyle=1;" parent="EEwjy92J7T-Fo-g2I9Rr-14" vertex="1">
          <mxGeometry y="156" width="290" height="8" as="geometry" />
        </mxCell>
        <mxCell id="EEwjy92J7T-Fo-g2I9Rr-21" value="&lt;span class=&quot;hljs-operator&quot;&gt;+&lt;/span&gt; getComments(): ArrayList&amp;lt;Comment&amp;gt;" style="text;strokeColor=none;fillColor=none;align=left;verticalAlign=top;spacingLeft=4;spacingRight=4;overflow=hidden;rotatable=0;points=[[0,0.5],[1,0.5]];portConstraint=eastwest;whiteSpace=wrap;html=1;fontFamily=Helvetica;fontSize=12;fontColor=#000000;fontStyle=0;" parent="EEwjy92J7T-Fo-g2I9Rr-14" vertex="1">
          <mxGeometry y="164" width="290" height="26" as="geometry" />
        </mxCell>
        <mxCell id="8RoMcGWY3sbtKZLGOFck-19" value="&lt;span class=&quot;hljs-operator&quot;&gt;+&lt;/span&gt;&amp;nbsp;setPostPrivacy(PostPrivacy: PrivacySetting): void" style="text;strokeColor=none;fillColor=none;align=left;verticalAlign=top;spacingLeft=4;spacingRight=4;overflow=hidden;rotatable=0;points=[[0,0.5],[1,0.5]];portConstraint=eastwest;whiteSpace=wrap;html=1;fontFamily=Helvetica;fontSize=12;fontColor=#000000;fontStyle=0;" vertex="1" parent="EEwjy92J7T-Fo-g2I9Rr-14">
          <mxGeometry y="190" width="290" height="26" as="geometry" />
        </mxCell>
        <mxCell id="8RoMcGWY3sbtKZLGOFck-17" value="&lt;span class=&quot;hljs-operator&quot;&gt;+&lt;/span&gt; getPostPrivacy(): PrivacySetting" style="text;strokeColor=none;fillColor=none;align=left;verticalAlign=top;spacingLeft=4;spacingRight=4;overflow=hidden;rotatable=0;points=[[0,0.5],[1,0.5]];portConstraint=eastwest;whiteSpace=wrap;html=1;fontFamily=Helvetica;fontSize=12;fontColor=#000000;fontStyle=0;" vertex="1" parent="EEwjy92J7T-Fo-g2I9Rr-14">
          <mxGeometry y="216" width="290" height="26" as="geometry" />
        </mxCell>
        <mxCell id="8RoMcGWY3sbtKZLGOFck-22" value="&lt;span class=&quot;hljs-operator&quot;&gt;+&lt;/span&gt;&amp;nbsp;setTextContent(textContent: String): void" style="text;strokeColor=none;fillColor=none;align=left;verticalAlign=top;spacingLeft=4;spacingRight=4;overflow=hidden;rotatable=0;points=[[0,0.5],[1,0.5]];portConstraint=eastwest;whiteSpace=wrap;html=1;fontFamily=Helvetica;fontSize=12;fontColor=#000000;fontStyle=0;" vertex="1" parent="EEwjy92J7T-Fo-g2I9Rr-14">
          <mxGeometry y="242" width="290" height="26" as="geometry" />
        </mxCell>
        <mxCell id="8RoMcGWY3sbtKZLGOFck-23" value="&lt;span class=&quot;hljs-operator&quot;&gt;+&lt;/span&gt;&amp;nbsp;getTextContent(): String" style="text;strokeColor=none;fillColor=none;align=left;verticalAlign=top;spacingLeft=4;spacingRight=4;overflow=hidden;rotatable=0;points=[[0,0.5],[1,0.5]];portConstraint=eastwest;whiteSpace=wrap;html=1;fontFamily=Helvetica;fontSize=12;fontColor=#000000;fontStyle=0;" vertex="1" parent="EEwjy92J7T-Fo-g2I9Rr-14">
          <mxGeometry y="268" width="290" height="26" as="geometry" />
        </mxCell>
        <mxCell id="8RoMcGWY3sbtKZLGOFck-20" value="&lt;span class=&quot;hljs-operator&quot;&gt;+&lt;/span&gt;&amp;nbsp;getShare(): int" style="text;strokeColor=none;fillColor=none;align=left;verticalAlign=top;spacingLeft=4;spacingRight=4;overflow=hidden;rotatable=0;points=[[0,0.5],[1,0.5]];portConstraint=eastwest;whiteSpace=wrap;html=1;fontFamily=Helvetica;fontSize=12;fontColor=#000000;fontStyle=0;" vertex="1" parent="EEwjy92J7T-Fo-g2I9Rr-14">
          <mxGeometry y="294" width="290" height="26" as="geometry" />
        </mxCell>
        <mxCell id="8RoMcGWY3sbtKZLGOFck-21" value="&lt;span class=&quot;hljs-operator&quot;&gt;+&lt;/span&gt;&amp;nbsp;getLikes(): int" style="text;strokeColor=none;fillColor=none;align=left;verticalAlign=top;spacingLeft=4;spacingRight=4;overflow=hidden;rotatable=0;points=[[0,0.5],[1,0.5]];portConstraint=eastwest;whiteSpace=wrap;html=1;fontFamily=Helvetica;fontSize=12;fontColor=#000000;fontStyle=0;" vertex="1" parent="EEwjy92J7T-Fo-g2I9Rr-14">
          <mxGeometry y="320" width="290" height="26" as="geometry" />
        </mxCell>
        <mxCell id="EEwjy92J7T-Fo-g2I9Rr-22" value="comments" style="swimlane;fontStyle=1;childLayout=stackLayout;horizontal=1;startSize=26;fillColor=#CCE5FF;horizontalStack=0;resizeParent=1;resizeParentMax=0;resizeLast=0;collapsible=1;marginBottom=0;whiteSpace=wrap;html=1;rounded=1;glass=0;shadow=0;arcSize=24;strokeColor=#000066;align=center;verticalAlign=top;spacingLeft=4;spacingRight=4;fontFamily=Helvetica;fontSize=12;fontColor=#ffffff;gradientColor=none;swimlaneFillColor=#F2F9FF;" parent="WIyWlLk6GJQsqaUBKTNV-1" vertex="1">
          <mxGeometry x="-280" y="760" width="260" height="130" as="geometry" />
        </mxCell>
        <mxCell id="EEwjy92J7T-Fo-g2I9Rr-23" value="- likes: int" style="text;strokeColor=none;fillColor=none;align=left;verticalAlign=top;spacingLeft=4;spacingRight=4;overflow=hidden;rotatable=0;points=[[0,0.5],[1,0.5]];portConstraint=eastwest;whiteSpace=wrap;html=1;rounded=1;glass=0;shadow=0;fontFamily=Helvetica;fontSize=12;fontColor=#000000;fontStyle=0;" parent="EEwjy92J7T-Fo-g2I9Rr-22" vertex="1">
          <mxGeometry y="26" width="260" height="26" as="geometry" />
        </mxCell>
        <mxCell id="EEwjy92J7T-Fo-g2I9Rr-25" value="&lt;span class=&quot;hljs-operator&quot;&gt;+&lt;/span&gt;&amp;nbsp;getLikes(): int" style="text;strokeColor=none;fillColor=none;align=left;verticalAlign=middle;spacingLeft=4;spacingRight=4;overflow=hidden;rotatable=0;points=[[0,0.5],[1,0.5]];portConstraint=eastwest;whiteSpace=wrap;html=1;rounded=1;glass=0;shadow=0;fontFamily=Helvetica;fontSize=12;fontColor=#000000;fontStyle=0;" parent="EEwjy92J7T-Fo-g2I9Rr-22" vertex="1">
          <mxGeometry y="52" width="260" height="26" as="geometry" />
        </mxCell>
        <mxCell id="EEwjy92J7T-Fo-g2I9Rr-26" value="+ Likes(): void" style="text;strokeColor=none;fillColor=none;align=left;verticalAlign=middle;spacingLeft=4;spacingRight=4;overflow=hidden;rotatable=0;points=[[0,0.5],[1,0.5]];portConstraint=eastwest;whiteSpace=wrap;html=1;rounded=1;glass=0;shadow=0;fontFamily=Helvetica;fontSize=12;fontColor=#000000;fontStyle=0;" parent="EEwjy92J7T-Fo-g2I9Rr-22" vertex="1">
          <mxGeometry y="78" width="260" height="26" as="geometry" />
        </mxCell>
        <mxCell id="EEwjy92J7T-Fo-g2I9Rr-27" value="+ field: type" style="text;strokeColor=none;fillColor=none;align=left;verticalAlign=top;spacingLeft=4;spacingRight=4;overflow=hidden;rotatable=0;points=[[0,0.5],[1,0.5]];portConstraint=eastwest;whiteSpace=wrap;html=1;rounded=1;glass=0;shadow=0;fontFamily=Helvetica;fontSize=12;fontColor=#000000;fontStyle=0;" parent="EEwjy92J7T-Fo-g2I9Rr-22" vertex="1">
          <mxGeometry y="104" width="260" height="26" as="geometry" />
        </mxCell>
        <mxCell id="EEwjy92J7T-Fo-g2I9Rr-28" value="" style="edgeStyle=none;orthogonalLoop=1;jettySize=auto;html=1;rounded=0;fontFamily=Helvetica;fontSize=12;fontColor=#ffffff;fontStyle=1;endArrow=none;endFill=0;strokeColor=#000066;entryX=0.999;entryY=0.09;entryDx=0;entryDy=0;entryPerimeter=0;exitX=0;exitY=0.079;exitDx=0;exitDy=0;exitPerimeter=0;jumpStyle=none;verticalAlign=middle;jumpSize=6;flowAnimation=0;" parent="EEwjy92J7T-Fo-g2I9Rr-22" source="EEwjy92J7T-Fo-g2I9Rr-25" target="EEwjy92J7T-Fo-g2I9Rr-25" edge="1">
          <mxGeometry width="100" relative="1" as="geometry">
            <mxPoint x="-20" y="-131.70291750372036" as="sourcePoint" />
            <mxPoint x="140" y="-61.322000000000116" as="targetPoint" />
            <Array as="points" />
          </mxGeometry>
        </mxCell>
        <mxCell id="EEwjy92J7T-Fo-g2I9Rr-29" value="" style="orthogonalLoop=1;jettySize=auto;html=1;rounded=0;fontFamily=Helvetica;fontSize=12;fontColor=#ffffff;fontStyle=1;endArrow=none;endFill=0;startArrow=block;startFill=0;entryX=0.346;entryY=-0.003;entryDx=0;entryDy=0;entryPerimeter=0;" parent="WIyWlLk6GJQsqaUBKTNV-1" edge="1" target="EEwjy92J7T-Fo-g2I9Rr-22">
          <mxGeometry width="100" relative="1" as="geometry">
            <mxPoint x="-217" y="716" as="sourcePoint" />
            <mxPoint x="-190" y="759" as="targetPoint" />
            <Array as="points">
              <mxPoint x="-217" y="740" />
              <mxPoint x="-190" y="740" />
            </Array>
          </mxGeometry>
        </mxCell>
        <mxCell id="8RoMcGWY3sbtKZLGOFck-6" value="&lt;i&gt;&lt;font color=&quot;#000066&quot; style=&quot;font-size: 16px;&quot;&gt;Content&lt;/font&gt;&lt;/i&gt;" style="swimlane;fontStyle=1;align=center;verticalAlign=top;childLayout=stackLayout;horizontal=1;startSize=26;horizontalStack=0;resizeParent=1;resizeParentMax=0;resizeLast=0;collapsible=1;marginBottom=0;whiteSpace=wrap;html=1;fillColor=#CCE5FF;strokeColor=#000066;swimlaneFillColor=#F2F9FF;rounded=1;fontColor=#ffffff;arcSize=22;fontFamily=Helvetica;fontSize=12;" vertex="1" parent="WIyWlLk6GJQsqaUBKTNV-1">
          <mxGeometry x="-517" y="70" width="250" height="190" as="geometry" />
        </mxCell>
        <mxCell id="8RoMcGWY3sbtKZLGOFck-7" value="&lt;span style=&quot;font-weight: normal;&quot;&gt;-&amp;nbsp;&lt;/span&gt;&lt;span style=&quot;font-weight: 400;&quot;&gt;author&lt;/span&gt;&lt;span style=&quot;font-weight: normal;&quot;&gt;: String&lt;/span&gt;" style="text;strokeColor=none;fillColor=none;align=left;verticalAlign=top;spacingLeft=4;spacingRight=4;overflow=hidden;rotatable=0;points=[[0,0.5],[1,0.5]];portConstraint=eastwest;whiteSpace=wrap;html=1;fontFamily=Helvetica;fontSize=12;fontColor=#000000;fontStyle=1;" vertex="1" parent="8RoMcGWY3sbtKZLGOFck-6">
          <mxGeometry y="26" width="250" height="26" as="geometry" />
        </mxCell>
        <mxCell id="8RoMcGWY3sbtKZLGOFck-14" value="&lt;span style=&quot;font-weight: normal;&quot;&gt;-&amp;nbsp;&lt;/span&gt;&lt;span style=&quot;font-weight: 400;&quot;&gt;timeCreats&lt;/span&gt;&lt;span style=&quot;font-weight: normal;&quot;&gt;: String&lt;/span&gt;" style="text;strokeColor=none;fillColor=none;align=left;verticalAlign=top;spacingLeft=4;spacingRight=4;overflow=hidden;rotatable=0;points=[[0,0.5],[1,0.5]];portConstraint=eastwest;whiteSpace=wrap;html=1;fontFamily=Helvetica;fontSize=12;fontColor=#000000;fontStyle=1;" vertex="1" parent="8RoMcGWY3sbtKZLGOFck-6">
          <mxGeometry y="52" width="250" height="26" as="geometry" />
        </mxCell>
        <mxCell id="8RoMcGWY3sbtKZLGOFck-12" value="" style="line;strokeWidth=1;fillColor=#CCE5FF;align=center;verticalAlign=top;spacingTop=-1;spacingLeft=3;spacingRight=3;rotatable=0;labelPosition=right;points=[];portConstraint=eastwest;strokeColor=#000066;rounded=1;arcSize=22;swimlaneFillColor=#F2F9FF;fontFamily=Helvetica;fontSize=12;fontColor=#ffffff;fontStyle=1;" vertex="1" parent="8RoMcGWY3sbtKZLGOFck-6">
          <mxGeometry y="78" width="250" height="8" as="geometry" />
        </mxCell>
        <mxCell id="8RoMcGWY3sbtKZLGOFck-9" value="&lt;span class=&quot;hljs-operator&quot;&gt;+&lt;/span&gt; setAuthor(author: String): void" style="text;strokeColor=none;fillColor=none;align=left;verticalAlign=top;spacingLeft=4;spacingRight=4;overflow=hidden;rotatable=0;points=[[0,0.5],[1,0.5]];portConstraint=eastwest;whiteSpace=wrap;html=1;fontFamily=Helvetica;fontSize=12;fontColor=#000000;fontStyle=0;" vertex="1" parent="8RoMcGWY3sbtKZLGOFck-6">
          <mxGeometry y="86" width="250" height="26" as="geometry" />
        </mxCell>
        <mxCell id="8RoMcGWY3sbtKZLGOFck-10" value="&lt;span class=&quot;hljs-operator&quot;&gt;+&lt;/span&gt;&amp;nbsp;setTimeCreats(timeCreats: String): void" style="text;strokeColor=none;fillColor=none;align=left;verticalAlign=top;spacingLeft=4;spacingRight=4;overflow=hidden;rotatable=0;points=[[0,0.5],[1,0.5]];portConstraint=eastwest;whiteSpace=wrap;html=1;fontFamily=Helvetica;fontSize=12;fontColor=#000000;fontStyle=0;" vertex="1" parent="8RoMcGWY3sbtKZLGOFck-6">
          <mxGeometry y="112" width="250" height="26" as="geometry" />
        </mxCell>
        <mxCell id="8RoMcGWY3sbtKZLGOFck-11" value="&lt;span class=&quot;hljs-operator&quot;&gt;+&lt;/span&gt;&amp;nbsp;getAuthor(author: String): String" style="text;strokeColor=none;fillColor=none;align=left;verticalAlign=top;spacingLeft=4;spacingRight=4;overflow=hidden;rotatable=0;points=[[0,0.5],[1,0.5]];portConstraint=eastwest;whiteSpace=wrap;html=1;fontFamily=Helvetica;fontSize=12;fontColor=#000000;fontStyle=0;" vertex="1" parent="8RoMcGWY3sbtKZLGOFck-6">
          <mxGeometry y="138" width="250" height="26" as="geometry" />
        </mxCell>
        <mxCell id="8RoMcGWY3sbtKZLGOFck-13" value="&lt;span class=&quot;hljs-operator&quot;&gt;+&lt;/span&gt;&amp;nbsp;getTimeCreats(timeCreats: String): String" style="text;strokeColor=none;fillColor=none;align=left;verticalAlign=top;spacingLeft=4;spacingRight=4;overflow=hidden;rotatable=0;points=[[0,0.5],[1,0.5]];portConstraint=eastwest;whiteSpace=wrap;html=1;fontFamily=Helvetica;fontSize=12;fontColor=#000000;fontStyle=0;" vertex="1" parent="8RoMcGWY3sbtKZLGOFck-6">
          <mxGeometry y="164" width="250" height="26" as="geometry" />
        </mxCell>
        <mxCell id="8RoMcGWY3sbtKZLGOFck-16" value="" style="endArrow=blockThin;endFill=0;endSize=12;html=1;rounded=0;entryX=0.56;entryY=1.05;entryDx=0;entryDy=0;entryPerimeter=0;" edge="1" parent="WIyWlLk6GJQsqaUBKTNV-1" target="8RoMcGWY3sbtKZLGOFck-13">
          <mxGeometry width="160" relative="1" as="geometry">
            <mxPoint x="-237" y="370" as="sourcePoint" />
            <mxPoint x="-117" y="320" as="targetPoint" />
            <Array as="points">
              <mxPoint x="-237" y="290" />
              <mxPoint x="-377" y="290" />
            </Array>
          </mxGeometry>
        </mxCell>
        <mxCell id="8RoMcGWY3sbtKZLGOFck-31" value="Reel" style="swimlane;fontStyle=1;align=center;verticalAlign=top;childLayout=stackLayout;horizontal=1;startSize=26;horizontalStack=0;resizeParent=1;resizeParentMax=0;resizeLast=0;collapsible=1;marginBottom=0;whiteSpace=wrap;html=1;fillColor=#CCE5FF;strokeColor=#000066;swimlaneFillColor=#F2F9FF;rounded=1;fontColor=#ffffff;arcSize=22;fontFamily=Helvetica;fontSize=12;" vertex="1" parent="WIyWlLk6GJQsqaUBKTNV-1">
          <mxGeometry x="-795" y="810" width="290" height="346" as="geometry" />
        </mxCell>
        <mxCell id="8RoMcGWY3sbtKZLGOFck-32" value="&lt;span style=&quot;font-weight: normal;&quot;&gt;- video&lt;/span&gt;&lt;span style=&quot;font-weight: normal;&quot;&gt;: String&lt;/span&gt;" style="text;strokeColor=none;fillColor=none;align=left;verticalAlign=top;spacingLeft=4;spacingRight=4;overflow=hidden;rotatable=0;points=[[0,0.5],[1,0.5]];portConstraint=eastwest;whiteSpace=wrap;html=1;fontFamily=Helvetica;fontSize=12;fontColor=#000000;fontStyle=1;" vertex="1" parent="8RoMcGWY3sbtKZLGOFck-31">
          <mxGeometry y="26" width="290" height="26" as="geometry" />
        </mxCell>
        <mxCell id="8RoMcGWY3sbtKZLGOFck-33" value="&lt;span style=&quot;font-weight: normal;&quot;&gt;- &lt;/span&gt;&lt;span style=&quot;font-weight: 400;&quot;&gt;PrivacySetting&lt;/span&gt;&lt;span style=&quot;font-weight: normal;&quot;&gt;: Reel&lt;/span&gt;&lt;span style=&quot;font-weight: 400;&quot;&gt;Privacy&lt;/span&gt;" style="text;strokeColor=none;fillColor=none;align=left;verticalAlign=top;spacingLeft=4;spacingRight=4;overflow=hidden;rotatable=0;points=[[0,0.5],[1,0.5]];portConstraint=eastwest;whiteSpace=wrap;html=1;fontFamily=Helvetica;fontSize=12;fontColor=#000000;fontStyle=1;" vertex="1" parent="8RoMcGWY3sbtKZLGOFck-31">
          <mxGeometry y="52" width="290" height="26" as="geometry" />
        </mxCell>
        <mxCell id="8RoMcGWY3sbtKZLGOFck-34" value="- likes: int" style="text;strokeColor=none;fillColor=none;align=left;verticalAlign=top;spacingLeft=4;spacingRight=4;overflow=hidden;rotatable=0;points=[[0,0.5],[1,0.5]];portConstraint=eastwest;whiteSpace=wrap;html=1;fontFamily=Helvetica;fontSize=12;fontColor=#000000;fontStyle=0;" vertex="1" parent="8RoMcGWY3sbtKZLGOFck-31">
          <mxGeometry y="78" width="290" height="26" as="geometry" />
        </mxCell>
        <mxCell id="8RoMcGWY3sbtKZLGOFck-35" value="- share: int" style="text;strokeColor=none;fillColor=none;align=left;verticalAlign=top;spacingLeft=4;spacingRight=4;overflow=hidden;rotatable=0;points=[[0,0.5],[1,0.5]];portConstraint=eastwest;whiteSpace=wrap;html=1;fontFamily=Helvetica;fontSize=12;fontColor=#000000;fontStyle=0;" vertex="1" parent="8RoMcGWY3sbtKZLGOFck-31">
          <mxGeometry y="104" width="290" height="26" as="geometry" />
        </mxCell>
        <mxCell id="8RoMcGWY3sbtKZLGOFck-36" value="- comments: ArrayList&lt;span class=&quot;hljs-operator&quot;&gt;&amp;lt;&lt;/span&gt;Comment&lt;span class=&quot;hljs-operator&quot;&gt;&amp;gt;&lt;/span&gt;" style="text;strokeColor=none;fillColor=none;align=left;verticalAlign=top;spacingLeft=4;spacingRight=4;overflow=hidden;rotatable=0;points=[[0,0.5],[1,0.5]];portConstraint=eastwest;whiteSpace=wrap;html=1;fontFamily=Helvetica;fontSize=12;fontColor=#000000;fontStyle=0;" vertex="1" parent="8RoMcGWY3sbtKZLGOFck-31">
          <mxGeometry y="130" width="290" height="26" as="geometry" />
        </mxCell>
        <mxCell id="8RoMcGWY3sbtKZLGOFck-37" value="" style="line;strokeWidth=1;fillColor=#CCE5FF;align=center;verticalAlign=top;spacingTop=-1;spacingLeft=3;spacingRight=3;rotatable=0;labelPosition=right;points=[];portConstraint=eastwest;strokeColor=#000066;rounded=1;arcSize=22;swimlaneFillColor=#F2F9FF;fontFamily=Helvetica;fontSize=12;fontColor=#ffffff;fontStyle=1;" vertex="1" parent="8RoMcGWY3sbtKZLGOFck-31">
          <mxGeometry y="156" width="290" height="8" as="geometry" />
        </mxCell>
        <mxCell id="8RoMcGWY3sbtKZLGOFck-53" value="&lt;span class=&quot;hljs-operator&quot;&gt;+&lt;/span&gt;&amp;nbsp;getVideo(): String" style="text;strokeColor=none;fillColor=none;align=left;verticalAlign=top;spacingLeft=4;spacingRight=4;overflow=hidden;rotatable=0;points=[[0,0.5],[1,0.5]];portConstraint=eastwest;whiteSpace=wrap;html=1;fontFamily=Helvetica;fontSize=12;fontColor=#000000;fontStyle=0;" vertex="1" parent="8RoMcGWY3sbtKZLGOFck-31">
          <mxGeometry y="164" width="290" height="26" as="geometry" />
        </mxCell>
        <mxCell id="8RoMcGWY3sbtKZLGOFck-55" value="+ setVideo(video: String): void" style="text;strokeColor=none;fillColor=none;align=left;verticalAlign=top;spacingLeft=4;spacingRight=4;overflow=hidden;rotatable=0;points=[[0,0.5],[1,0.5]];portConstraint=eastwest;whiteSpace=wrap;html=1;fontFamily=Helvetica;fontSize=12;fontColor=#000000;fontStyle=0;" vertex="1" parent="8RoMcGWY3sbtKZLGOFck-31">
          <mxGeometry y="190" width="290" height="26" as="geometry" />
        </mxCell>
        <mxCell id="8RoMcGWY3sbtKZLGOFck-38" value="&lt;span class=&quot;hljs-operator&quot;&gt;+&lt;/span&gt; getComments(): ArrayList&amp;lt;Comment&amp;gt;" style="text;strokeColor=none;fillColor=none;align=left;verticalAlign=top;spacingLeft=4;spacingRight=4;overflow=hidden;rotatable=0;points=[[0,0.5],[1,0.5]];portConstraint=eastwest;whiteSpace=wrap;html=1;fontFamily=Helvetica;fontSize=12;fontColor=#000000;fontStyle=0;" vertex="1" parent="8RoMcGWY3sbtKZLGOFck-31">
          <mxGeometry y="216" width="290" height="26" as="geometry" />
        </mxCell>
        <mxCell id="8RoMcGWY3sbtKZLGOFck-39" value="&lt;span class=&quot;hljs-operator&quot;&gt;+&lt;/span&gt;&amp;nbsp;setPostPrivacy(ReelPrivacy: PrivacySetting): void" style="text;strokeColor=none;fillColor=none;align=left;verticalAlign=top;spacingLeft=4;spacingRight=4;overflow=hidden;rotatable=0;points=[[0,0.5],[1,0.5]];portConstraint=eastwest;whiteSpace=wrap;html=1;fontFamily=Helvetica;fontSize=12;fontColor=#000000;fontStyle=0;" vertex="1" parent="8RoMcGWY3sbtKZLGOFck-31">
          <mxGeometry y="242" width="290" height="26" as="geometry" />
        </mxCell>
        <mxCell id="8RoMcGWY3sbtKZLGOFck-40" value="&lt;span class=&quot;hljs-operator&quot;&gt;+&lt;/span&gt; getReelPrivacy(): PrivacySetting" style="text;strokeColor=none;fillColor=none;align=left;verticalAlign=top;spacingLeft=4;spacingRight=4;overflow=hidden;rotatable=0;points=[[0,0.5],[1,0.5]];portConstraint=eastwest;whiteSpace=wrap;html=1;fontFamily=Helvetica;fontSize=12;fontColor=#000000;fontStyle=0;" vertex="1" parent="8RoMcGWY3sbtKZLGOFck-31">
          <mxGeometry y="268" width="290" height="26" as="geometry" />
        </mxCell>
        <mxCell id="8RoMcGWY3sbtKZLGOFck-43" value="&lt;span class=&quot;hljs-operator&quot;&gt;+&lt;/span&gt;&amp;nbsp;getShare(): int" style="text;strokeColor=none;fillColor=none;align=left;verticalAlign=top;spacingLeft=4;spacingRight=4;overflow=hidden;rotatable=0;points=[[0,0.5],[1,0.5]];portConstraint=eastwest;whiteSpace=wrap;html=1;fontFamily=Helvetica;fontSize=12;fontColor=#000000;fontStyle=0;" vertex="1" parent="8RoMcGWY3sbtKZLGOFck-31">
          <mxGeometry y="294" width="290" height="26" as="geometry" />
        </mxCell>
        <mxCell id="8RoMcGWY3sbtKZLGOFck-44" value="&lt;span class=&quot;hljs-operator&quot;&gt;+&lt;/span&gt;&amp;nbsp;getLikes(): int" style="text;strokeColor=none;fillColor=none;align=left;verticalAlign=top;spacingLeft=4;spacingRight=4;overflow=hidden;rotatable=0;points=[[0,0.5],[1,0.5]];portConstraint=eastwest;whiteSpace=wrap;html=1;fontFamily=Helvetica;fontSize=12;fontColor=#000000;fontStyle=0;" vertex="1" parent="8RoMcGWY3sbtKZLGOFck-31">
          <mxGeometry y="320" width="290" height="26" as="geometry" />
        </mxCell>
        <mxCell id="8RoMcGWY3sbtKZLGOFck-45" value="" style="endArrow=blockThin;endFill=0;endSize=12;html=1;rounded=0;entryX=0.307;entryY=0.999;entryDx=0;entryDy=0;entryPerimeter=0;exitX=0.676;exitY=-0.005;exitDx=0;exitDy=0;exitPerimeter=0;" edge="1" parent="WIyWlLk6GJQsqaUBKTNV-1" source="8RoMcGWY3sbtKZLGOFck-31" target="8RoMcGWY3sbtKZLGOFck-13">
          <mxGeometry width="160" relative="1" as="geometry">
            <mxPoint x="-430" y="590" as="sourcePoint" />
            <mxPoint x="-490" y="261" as="targetPoint" />
            <Array as="points">
              <mxPoint x="-600" y="760" />
              <mxPoint x="-480" y="760" />
              <mxPoint x="-480" y="360" />
              <mxPoint x="-440" y="360" />
              <mxPoint x="-440" y="290" />
            </Array>
          </mxGeometry>
        </mxCell>
        <mxCell id="8RoMcGWY3sbtKZLGOFck-50" value="" style="endArrow=none;startArrow=none;endFill=0;startFill=0;endSize=8;html=1;rounded=0;dashed=1;entryX=-0.002;entryY=0.713;entryDx=0;entryDy=0;entryPerimeter=0;exitX=1.003;exitY=0.332;exitDx=0;exitDy=0;exitPerimeter=0;" edge="1" parent="WIyWlLk6GJQsqaUBKTNV-1" source="EEwjy92J7T-Fo-g2I9Rr-6" target="EEwjy92J7T-Fo-g2I9Rr-16">
          <mxGeometry width="160" relative="1" as="geometry">
            <mxPoint x="-550" y="530" as="sourcePoint" />
            <mxPoint x="-390" y="530" as="targetPoint" />
          </mxGeometry>
        </mxCell>
        <mxCell id="8RoMcGWY3sbtKZLGOFck-51" value="1" style="text;html=1;align=center;verticalAlign=middle;resizable=0;points=[];autosize=1;strokeColor=none;fillColor=none;" vertex="1" parent="WIyWlLk6GJQsqaUBKTNV-1">
          <mxGeometry x="-625" y="418" width="30" height="30" as="geometry" />
        </mxCell>
        <mxCell id="8RoMcGWY3sbtKZLGOFck-52" value="*" style="text;html=1;align=center;verticalAlign=middle;resizable=0;points=[];autosize=1;strokeColor=none;fillColor=none;" vertex="1" parent="WIyWlLk6GJQsqaUBKTNV-1">
          <mxGeometry x="-350" y="418" width="30" height="30" as="geometry" />
        </mxCell>
        <mxCell id="8RoMcGWY3sbtKZLGOFck-57" value="" style="endArrow=none;startArrow=none;endFill=0;startFill=0;endSize=8;html=1;rounded=0;dashed=1;entryX=-0.006;entryY=1.045;entryDx=0;entryDy=0;entryPerimeter=0;exitX=1.005;exitY=0.147;exitDx=0;exitDy=0;exitPerimeter=0;" edge="1" parent="WIyWlLk6GJQsqaUBKTNV-1" source="8RoMcGWY3sbtKZLGOFck-32" target="EEwjy92J7T-Fo-g2I9Rr-25">
          <mxGeometry width="160" relative="1" as="geometry">
            <mxPoint x="-450" y="769.9960000000001" as="sourcePoint" />
            <mxPoint x="-448.47" y="1032.116" as="targetPoint" />
          </mxGeometry>
        </mxCell>
        <mxCell id="8RoMcGWY3sbtKZLGOFck-58" value="1" style="text;html=1;align=center;verticalAlign=middle;resizable=0;points=[];autosize=1;strokeColor=none;fillColor=none;" vertex="1" parent="WIyWlLk6GJQsqaUBKTNV-1">
          <mxGeometry x="-505" y="810" width="30" height="30" as="geometry" />
        </mxCell>
        <mxCell id="8RoMcGWY3sbtKZLGOFck-59" value="*" style="text;html=1;align=center;verticalAlign=middle;resizable=0;points=[];autosize=1;strokeColor=none;fillColor=none;" vertex="1" parent="WIyWlLk6GJQsqaUBKTNV-1">
          <mxGeometry x="-310" y="810" width="30" height="30" as="geometry" />
        </mxCell>
        <mxCell id="8RoMcGWY3sbtKZLGOFck-60" value="Story" style="swimlane;fontStyle=1;align=center;verticalAlign=top;childLayout=stackLayout;horizontal=1;startSize=26;horizontalStack=0;resizeParent=1;resizeParentMax=0;resizeLast=0;collapsible=1;marginBottom=0;whiteSpace=wrap;html=1;fillColor=#CCE5FF;strokeColor=#000066;swimlaneFillColor=#F2F9FF;rounded=1;fontColor=#ffffff;arcSize=22;fontFamily=Helvetica;fontSize=12;" vertex="1" parent="WIyWlLk6GJQsqaUBKTNV-1">
          <mxGeometry x="-320" y="970" width="300" height="268" as="geometry" />
        </mxCell>
        <mxCell id="8RoMcGWY3sbtKZLGOFck-61" value="&lt;span style=&quot;font-weight: normal;&quot;&gt;- image&lt;/span&gt;&lt;span style=&quot;font-weight: normal;&quot;&gt;: String&lt;/span&gt;" style="text;strokeColor=none;fillColor=none;align=left;verticalAlign=top;spacingLeft=4;spacingRight=4;overflow=hidden;rotatable=0;points=[[0,0.5],[1,0.5]];portConstraint=eastwest;whiteSpace=wrap;html=1;fontFamily=Helvetica;fontSize=12;fontColor=#000000;fontStyle=1;" vertex="1" parent="8RoMcGWY3sbtKZLGOFck-60">
          <mxGeometry y="26" width="300" height="26" as="geometry" />
        </mxCell>
        <mxCell id="8RoMcGWY3sbtKZLGOFck-76" value="&lt;span style=&quot;font-weight: normal;&quot;&gt;- age&lt;/span&gt;&lt;span style=&quot;font-weight: normal;&quot;&gt;: String&lt;/span&gt;" style="text;strokeColor=none;fillColor=none;align=left;verticalAlign=top;spacingLeft=4;spacingRight=4;overflow=hidden;rotatable=0;points=[[0,0.5],[1,0.5]];portConstraint=eastwest;whiteSpace=wrap;html=1;fontFamily=Helvetica;fontSize=12;fontColor=#000000;fontStyle=1;" vertex="1" parent="8RoMcGWY3sbtKZLGOFck-60">
          <mxGeometry y="52" width="300" height="26" as="geometry" />
        </mxCell>
        <mxCell id="8RoMcGWY3sbtKZLGOFck-62" value="&lt;span style=&quot;font-weight: normal;&quot;&gt;- &lt;/span&gt;&lt;span style=&quot;font-weight: 400;&quot;&gt;PrivacySetting&lt;/span&gt;&lt;span style=&quot;font-weight: normal;&quot;&gt;: Story&lt;/span&gt;&lt;span style=&quot;font-weight: 400;&quot;&gt;Privacy&lt;/span&gt;" style="text;strokeColor=none;fillColor=none;align=left;verticalAlign=top;spacingLeft=4;spacingRight=4;overflow=hidden;rotatable=0;points=[[0,0.5],[1,0.5]];portConstraint=eastwest;whiteSpace=wrap;html=1;fontFamily=Helvetica;fontSize=12;fontColor=#000000;fontStyle=1;" vertex="1" parent="8RoMcGWY3sbtKZLGOFck-60">
          <mxGeometry y="78" width="300" height="26" as="geometry" />
        </mxCell>
        <mxCell id="8RoMcGWY3sbtKZLGOFck-66" value="" style="line;strokeWidth=1;fillColor=#CCE5FF;align=center;verticalAlign=top;spacingTop=-1;spacingLeft=3;spacingRight=3;rotatable=0;labelPosition=right;points=[];portConstraint=eastwest;strokeColor=#000066;rounded=1;arcSize=22;swimlaneFillColor=#F2F9FF;fontFamily=Helvetica;fontSize=12;fontColor=#ffffff;fontStyle=1;" vertex="1" parent="8RoMcGWY3sbtKZLGOFck-60">
          <mxGeometry y="104" width="300" height="8" as="geometry" />
        </mxCell>
        <mxCell id="8RoMcGWY3sbtKZLGOFck-67" value="&lt;span class=&quot;hljs-operator&quot;&gt;+&lt;/span&gt;&amp;nbsp;getImage(): String" style="text;strokeColor=none;fillColor=none;align=left;verticalAlign=top;spacingLeft=4;spacingRight=4;overflow=hidden;rotatable=0;points=[[0,0.5],[1,0.5]];portConstraint=eastwest;whiteSpace=wrap;html=1;fontFamily=Helvetica;fontSize=12;fontColor=#000000;fontStyle=0;" vertex="1" parent="8RoMcGWY3sbtKZLGOFck-60">
          <mxGeometry y="112" width="300" height="26" as="geometry" />
        </mxCell>
        <mxCell id="8RoMcGWY3sbtKZLGOFck-77" value="&lt;span class=&quot;hljs-operator&quot;&gt;+&lt;/span&gt;&amp;nbsp;getAge(): int" style="text;strokeColor=none;fillColor=none;align=left;verticalAlign=top;spacingLeft=4;spacingRight=4;overflow=hidden;rotatable=0;points=[[0,0.5],[1,0.5]];portConstraint=eastwest;whiteSpace=wrap;html=1;fontFamily=Helvetica;fontSize=12;fontColor=#000000;fontStyle=0;" vertex="1" parent="8RoMcGWY3sbtKZLGOFck-60">
          <mxGeometry y="138" width="300" height="26" as="geometry" />
        </mxCell>
        <mxCell id="8RoMcGWY3sbtKZLGOFck-68" value="+ setImage(image: String): void" style="text;strokeColor=none;fillColor=none;align=left;verticalAlign=top;spacingLeft=4;spacingRight=4;overflow=hidden;rotatable=0;points=[[0,0.5],[1,0.5]];portConstraint=eastwest;whiteSpace=wrap;html=1;fontFamily=Helvetica;fontSize=12;fontColor=#000000;fontStyle=0;" vertex="1" parent="8RoMcGWY3sbtKZLGOFck-60">
          <mxGeometry y="164" width="300" height="26" as="geometry" />
        </mxCell>
        <mxCell id="8RoMcGWY3sbtKZLGOFck-78" value="+ setAge(age: int): void" style="text;strokeColor=none;fillColor=none;align=left;verticalAlign=top;spacingLeft=4;spacingRight=4;overflow=hidden;rotatable=0;points=[[0,0.5],[1,0.5]];portConstraint=eastwest;whiteSpace=wrap;html=1;fontFamily=Helvetica;fontSize=12;fontColor=#000000;fontStyle=0;" vertex="1" parent="8RoMcGWY3sbtKZLGOFck-60">
          <mxGeometry y="190" width="300" height="26" as="geometry" />
        </mxCell>
        <mxCell id="8RoMcGWY3sbtKZLGOFck-70" value="&lt;span class=&quot;hljs-operator&quot;&gt;+&lt;/span&gt;&amp;nbsp;setStoryPrivacy(StoryPrivacy: PrivacySetting): void" style="text;strokeColor=none;fillColor=none;align=left;verticalAlign=top;spacingLeft=4;spacingRight=4;overflow=hidden;rotatable=0;points=[[0,0.5],[1,0.5]];portConstraint=eastwest;whiteSpace=wrap;html=1;fontFamily=Helvetica;fontSize=12;fontColor=#000000;fontStyle=0;" vertex="1" parent="8RoMcGWY3sbtKZLGOFck-60">
          <mxGeometry y="216" width="300" height="26" as="geometry" />
        </mxCell>
        <mxCell id="8RoMcGWY3sbtKZLGOFck-71" value="&lt;span class=&quot;hljs-operator&quot;&gt;+&lt;/span&gt; getStoryPrivacy(): PrivacySetting" style="text;strokeColor=none;fillColor=none;align=left;verticalAlign=top;spacingLeft=4;spacingRight=4;overflow=hidden;rotatable=0;points=[[0,0.5],[1,0.5]];portConstraint=eastwest;whiteSpace=wrap;html=1;fontFamily=Helvetica;fontSize=12;fontColor=#000000;fontStyle=0;" vertex="1" parent="8RoMcGWY3sbtKZLGOFck-60">
          <mxGeometry y="242" width="300" height="26" as="geometry" />
        </mxCell>
        <mxCell id="8RoMcGWY3sbtKZLGOFck-75" value="" style="endArrow=blockThin;endFill=0;endSize=12;html=1;rounded=0;exitX=0.468;exitY=0.002;exitDx=0;exitDy=0;exitPerimeter=0;entryX=0.389;entryY=0.988;entryDx=0;entryDy=0;entryPerimeter=0;edgeStyle=orthogonalEdgeStyle;" edge="1" parent="WIyWlLk6GJQsqaUBKTNV-1" target="8RoMcGWY3sbtKZLGOFck-13">
          <mxGeometry width="160" relative="1" as="geometry">
            <mxPoint x="-184.27999999999997" y="969.9919999999998" as="sourcePoint" />
            <mxPoint x="-430" y="290" as="targetPoint" />
            <Array as="points">
              <mxPoint x="-184" y="920" />
              <mxPoint x="-420" y="920" />
            </Array>
          </mxGeometry>
        </mxCell>
      </root>
    </mxGraphModel>
  </diagram>
</mxfile>
